<svg width="453" height="430" viewBox="0 0 453 430" fill="none" xmlns="http://www.w3.org/2000/svg">
<path d="M303.834 323.28C302.469 321.902 305.687 313.853 320.959 313.283C336.23 312.713 342.348 317.779 342.37 323.28C342.382 325.714 303.834 323.28 303.834 323.28Z" fill="#455A64"/>
<path d="M296.295 112.698L279.329 208.282H434.271L452.942 111.672L296.295 112.698Z" fill="#F5F5F5"/>
<path d="M294.748 121.389C294.817 121.058 451.168 120.85 451.168 120.85L452.942 111.672L296.295 112.708L294.748 121.41" fill="#E0E0E0"/>
<path d="M302.845 116.997C302.847 117.257 302.764 117.513 302.607 117.731C302.45 117.948 302.225 118.119 301.961 118.22C301.697 118.321 301.407 118.348 301.126 118.299C300.845 118.249 300.587 118.125 300.383 117.941C300.18 117.758 300.042 117.523 299.985 117.268C299.928 117.012 299.956 116.747 300.065 116.506C300.174 116.265 300.359 116.059 300.597 115.914C300.835 115.769 301.114 115.692 301.401 115.692C301.59 115.69 301.777 115.723 301.952 115.788C302.127 115.853 302.287 115.949 302.421 116.07C302.555 116.192 302.662 116.336 302.734 116.495C302.807 116.654 302.845 116.825 302.845 116.997Z" fill="#263238"/>
<path d="M309.895 116.997C309.895 117.255 309.811 117.507 309.653 117.722C309.496 117.937 309.272 118.104 309.01 118.203C308.748 118.302 308.46 118.327 308.182 118.277C307.904 118.227 307.649 118.102 307.449 117.92C307.248 117.737 307.112 117.505 307.057 117.252C307.001 116.998 307.03 116.736 307.138 116.497C307.247 116.259 307.43 116.055 307.666 115.912C307.902 115.768 308.179 115.692 308.462 115.692C308.842 115.692 309.206 115.829 309.475 116.074C309.744 116.319 309.895 116.651 309.895 116.997Z" fill="#263238"/>
<path d="M316.956 116.997C316.958 117.257 316.876 117.513 316.718 117.731C316.561 117.948 316.336 118.119 316.073 118.22C315.809 118.321 315.518 118.348 315.237 118.299C314.956 118.249 314.698 118.125 314.495 117.941C314.292 117.758 314.153 117.523 314.096 117.268C314.04 117.012 314.068 116.747 314.177 116.506C314.286 116.265 314.471 116.059 314.708 115.914C314.946 115.769 315.226 115.692 315.512 115.692C315.701 115.69 315.889 115.723 316.064 115.788C316.239 115.853 316.398 115.949 316.532 116.07C316.667 116.192 316.773 116.336 316.846 116.495C316.919 116.654 316.956 116.825 316.956 116.997V116.997Z" fill="#263238"/>
<path d="M334.456 164.328L315.068 184.756C311.408 182.494 308.4 179.46 306.299 175.913C304.199 172.366 303.069 168.41 303.004 164.38C303.004 150.177 317.206 138.482 334.456 138.482C351.706 138.482 365.908 150.167 365.908 164.38L334.456 164.328Z" fill="#EE4248"/>
<path d="M336.946 167.57C336.852 167.715 336.741 167.85 336.617 167.974L335.605 169.073L331.761 173.216C328.418 176.78 323.665 181.814 317.968 187.874V187.543C322.263 190.237 327.226 191.917 332.409 192.433C338.261 193.047 344.188 192.232 349.58 190.071C354.726 188.034 359.17 184.766 362.44 180.613C363.914 178.676 365.095 176.568 365.954 174.345C366.703 172.269 367.158 170.114 367.307 167.933L367.557 168.171L345.384 167.829L339.152 167.705L337.504 167.653C337.311 167.67 337.116 167.67 336.924 167.653C337.105 167.637 337.288 167.637 337.469 167.653H339.095H345.293L367.557 167.788H367.83V168.037C367.701 170.267 367.25 172.471 366.488 174.594C365.625 176.865 364.427 179.018 362.929 180.996C359.599 185.26 355.048 188.61 349.773 190.682C344.281 192.871 338.25 193.693 332.296 193.064C327.024 192.519 321.983 190.789 317.627 188.03L317.4 187.885L317.581 187.688L331.613 173.113L335.536 169.073L336.582 168.037C336.689 167.872 336.81 167.716 336.946 167.57V167.57Z" fill="#263238"/>
<path d="M347.828 150.55C348.802 150.55 349.591 149.831 349.591 148.945C349.591 148.058 348.802 147.339 347.828 147.339C346.855 147.339 346.066 148.058 346.066 148.945C346.066 149.831 346.855 150.55 347.828 150.55Z" fill="#263238"/>
<path d="M384.602 137.197C384.053 137.275 383.498 137.31 382.942 137.301L378.394 137.384C374.584 137.384 369.297 137.467 363.509 137.467H360.735L360.939 137.394C357.289 140.709 354.037 143.61 351.683 145.681L348.897 148.106C348.579 148.42 348.22 148.699 347.828 148.934C348.104 148.59 348.413 148.267 348.749 147.971C349.443 147.298 350.341 146.448 351.41 145.433C353.684 143.288 356.891 140.326 360.507 136.99L360.587 136.918H363.577C369.388 136.918 374.653 136.918 378.462 136.99L383.01 137.083C383.544 137.075 384.077 137.114 384.602 137.197V137.197Z" fill="#263238"/>
<path d="M424.537 157.377C424.545 157.192 424.571 157.008 424.617 156.828C424.685 156.455 424.776 155.947 424.901 155.295L426.038 149.504L430.143 128.723L430.382 128.982L386.342 129.034L386.626 128.817V128.92V129.045V129.283L386.524 129.759L386.331 130.723L385.944 132.629C385.682 133.893 385.432 135.146 385.171 136.389C384.67 138.875 384.174 141.32 383.681 143.724C382.692 148.51 381.748 153.047 380.873 157.408L380.6 157.118L412.325 157.232L421.422 157.305H423.844H424.469H424.696H424.503H423.9H421.524L412.518 157.367L380.679 157.481H380.361L380.418 157.191C381.293 152.871 382.214 148.282 383.192 143.485C383.67 141.092 384.17 138.648 384.67 136.161C384.932 134.908 385.182 133.654 385.444 132.391C385.569 131.759 385.694 131.127 385.83 130.485L386.024 129.532L386.115 129.055L386.171 128.806V128.692V128.599L386.467 128.371L430.507 128.423H430.666L430.609 128.682C428.79 137.353 427.289 144.511 426.243 149.535C425.708 151.99 425.299 153.917 425.003 155.274L424.674 156.755C424.583 157.222 424.537 157.387 424.537 157.377Z" fill="#263238"/>
<path d="M350.592 182.85C351.565 182.85 352.354 182.131 352.354 181.245C352.354 180.358 351.565 179.639 350.592 179.639C349.618 179.639 348.829 180.358 348.829 181.245C348.829 182.131 349.618 182.85 350.592 182.85Z" fill="#263238"/>
<path d="M382.59 181.245C382.59 181.4 375.426 181.514 366.591 181.514C357.755 181.514 350.591 181.4 350.591 181.245C350.591 181.089 357.755 180.975 366.591 180.975C375.426 180.975 382.59 181.1 382.59 181.245Z" fill="#263238"/>
<path d="M424.537 193.759C424.551 193.625 424.578 193.494 424.617 193.365C424.685 193.085 424.776 192.712 424.901 192.246C425.163 191.21 425.538 189.832 426.038 188.03C427.028 184.363 428.438 179.131 430.177 172.698L430.393 172.947L384.977 173.009L385.262 172.812V172.874V172.957V173.133L385.159 173.486L384.966 174.169L384.591 175.557C384.329 176.469 384.079 177.381 383.829 178.292L382.214 183.72C381.236 187.232 380.293 190.63 379.383 193.872L379.121 193.562L411.699 193.676L421.115 193.738H423.639H424.298H424.537H424.333H423.696H421.228L411.859 193.8L379.121 193.914H378.758L378.848 193.593C379.747 190.35 380.679 186.942 381.646 183.43C382.131 181.669 382.627 179.884 383.135 178.075L383.886 175.34L384.272 173.962L384.466 173.268L384.557 172.916V172.75V172.657V172.595L384.841 172.387L430.257 172.46H430.666L430.598 172.709C428.756 179.173 427.266 184.425 426.22 188.102C425.697 189.874 425.288 191.272 425.003 192.246C424.867 192.692 424.765 193.044 424.685 193.282C424.605 193.52 424.537 193.769 424.537 193.759Z" fill="#263238"/>
<path d="M420.955 137.56C420.955 137.715 414.212 137.829 405.889 137.829C397.565 137.829 390.822 137.715 390.822 137.56C390.822 137.404 397.565 137.291 405.889 137.291C414.212 137.291 420.955 137.415 420.955 137.56Z" fill="#263238"/>
<path d="M420.603 142.056C420.603 142.211 413.78 142.325 405.457 142.325C397.133 142.325 390.299 142.211 390.299 142.056C390.299 141.9 397.122 141.786 405.457 141.786C413.792 141.786 420.603 141.911 420.603 142.056Z" fill="#263238"/>
<path d="M419.727 146.427C419.727 146.572 413.178 146.697 405.104 146.697C397.031 146.697 390.47 146.572 390.47 146.427C390.47 146.282 397.019 146.158 405.104 146.158C413.189 146.158 419.727 146.241 419.727 146.427Z" fill="#263238"/>
<path d="M420.25 180.747C420.25 180.892 413.826 181.017 405.889 181.017C397.952 181.017 391.527 180.892 391.527 180.747C391.527 180.602 397.963 180.478 405.889 180.478C413.814 180.478 420.25 180.613 420.25 180.747Z" fill="#263238"/>
<path d="M418.488 185.72C418.488 185.875 413.007 185.989 406.241 185.989C399.476 185.989 393.995 185.875 393.995 185.72C393.995 185.564 399.476 185.45 406.241 185.45C413.007 185.45 418.488 185.575 418.488 185.72Z" fill="#263238"/>
<path d="M235.471 289.799C234.925 292.71 219.756 323.29 229.547 323.29H278.761C278.761 323.29 273.678 318.939 289.063 289.799H235.471Z" fill="#455A64"/>
<path d="M203.632 187.729L183.517 294.823H353.184L373.993 183.969L203.632 187.729Z" fill="#455A64"/>
<path d="M209.398 192.951L192.443 288.545H347.374L366.045 191.935L209.398 192.951Z" fill="#FAFAFA"/>
<path d="M373.993 183.969L377.2 185.937L355.595 297.734H187.997L183.517 294.823H353.184L373.993 183.969Z" fill="#263238"/>
<path d="M207.862 201.652C207.919 201.31 364.271 201.114 364.271 201.114L366.045 191.935L209.398 192.971L207.862 201.673" fill="#EBEBEB"/>
<path d="M322.96 280.061V279.792L323.096 278.994C323.24 278.234 323.434 277.198 323.676 275.886C324.211 273.1 324.961 269.101 325.894 264.139C327.827 254.091 330.522 240.106 333.58 224.235V224.007H346.384L346.327 224.329C341.586 247.73 337.435 268.293 335.036 280.113V280.237H334.911L325.996 280.154H323.722H323.165H323.779H326.132L334.945 280.071L334.786 280.185L345.793 224.36L346.089 224.67H333.899L334.183 224.453C331.033 240.23 328.27 254.122 326.223 264.118C325.223 269.091 324.404 273.1 323.835 275.897C323.551 277.254 323.335 278.321 323.176 279.087C323.096 279.429 323.039 279.709 322.994 279.916C322.985 279.965 322.973 280.013 322.96 280.061V280.061Z" fill="#263238"/>
<path d="M303.311 280.061C303.326 279.809 303.368 279.559 303.436 279.315C303.538 278.766 303.686 278.031 303.868 277.098C304.277 275.099 304.846 272.271 305.562 268.811C307.052 261.632 309.133 251.646 311.509 240.23V240.012H324.313L324.245 240.333C320.652 256.566 317.422 270.997 315.421 280.144V280.279H315.273L306.37 280.185H304.095C303.842 280.201 303.587 280.201 303.334 280.185H304.175H306.54L315.319 280.092L315.137 280.227C317.115 271.069 320.231 256.628 323.733 240.375L324.017 240.696H311.759L312.044 240.489C309.576 251.801 307.416 261.704 305.858 268.821C305.073 272.354 304.448 275.192 303.993 277.192L303.481 279.46C303.481 279.698 303.368 279.895 303.334 280.051L303.311 280.061Z" fill="#263238"/>
<path d="M283.582 280.061C283.572 279.951 283.572 279.84 283.582 279.729L283.764 278.694C283.935 277.782 284.173 276.477 284.492 274.799C285.151 271.37 286.095 266.428 287.278 260.296C289.688 247.865 293.043 230.658 296.841 211.152V210.934H309.644L309.588 211.245C303.652 240.862 298.41 266.667 295.635 280.061V280.175H295.51L286.561 280.092H284.287H283.537H284.344H286.675L295.522 280.02L295.385 280.123C297.978 266.656 303.095 240.872 309.03 211.266L309.326 211.587H297.17L297.455 211.359C293.577 230.762 290.143 247.916 287.664 260.254C286.413 266.408 285.39 271.37 284.708 274.809L283.889 278.756C283.798 279.191 283.73 279.533 283.673 279.792L283.582 280.061Z" fill="#263238"/>
<path d="M263.887 280.061C263.896 279.887 263.919 279.714 263.956 279.543C264.035 279.139 264.126 278.631 264.24 277.989C264.501 276.56 264.877 274.571 265.377 272.095C266.366 266.967 267.742 259.85 269.323 251.625V251.407H282.115L282.047 251.729C279.693 262.917 277.578 272.986 276.077 280.102V280.258H275.918L267.049 280.154L264.649 280.061C264.388 280.076 264.126 280.076 263.865 280.061H264.729H267.128L275.861 279.957L275.656 280.102C277.112 272.986 279.17 262.896 281.444 251.698L281.74 252.019H269.562L269.834 251.811C268.152 259.943 266.707 266.977 265.65 272.043C265.127 274.529 264.695 276.539 264.388 277.979C264.24 278.631 264.126 279.17 264.035 279.574C263.996 279.739 263.947 279.901 263.887 280.061V280.061Z" fill="#263238"/>
<path d="M244.181 280.061C244.181 280.061 244.181 279.988 244.181 279.843C244.181 279.698 244.181 279.439 244.284 279.17C244.398 278.538 244.545 277.668 244.739 276.549C245.159 274.218 245.751 270.883 246.49 266.739C248.036 258.307 250.174 246.58 252.619 233.227V233.01H265.423L265.354 233.331C261.602 252.63 258.293 269.691 256.258 280.092V280.227H256.121L247.229 280.134H244.898C244.644 280.149 244.39 280.149 244.136 280.134H244.352H244.966H247.331L256.121 280.051L255.951 280.175L264.797 233.372L265.093 233.693H252.96L253.244 233.476C250.708 246.735 248.48 258.338 246.876 266.739C246.058 270.883 245.41 274.249 244.943 276.601C244.716 277.73 244.545 278.673 244.409 279.263L244.261 279.968L244.181 280.061Z" fill="#263238"/>
<path d="M224.51 280.061C224.495 279.961 224.495 279.86 224.51 279.761C224.51 279.533 224.601 279.232 224.669 278.849C224.828 278.01 225.044 276.777 225.328 275.285C225.908 272.178 226.761 267.63 227.807 262.015C229.968 250.672 232.981 234.885 236.392 217.015V216.797H249.196L249.139 217.119C243.84 243.97 239.155 267.443 236.574 280.092V280.206H236.449L227.523 280.123H225.249H224.703H225.306H227.637L236.472 280.04L236.324 280.154C238.735 267.475 243.306 243.98 248.605 217.139L248.889 217.45H236.711L236.995 217.232C233.504 235.009 230.411 250.703 228.194 261.984C227.057 267.62 226.158 272.147 225.522 275.296C225.215 276.85 224.964 278.051 224.794 278.911C224.703 279.305 224.646 279.616 224.589 279.854C224.532 280.092 224.51 280.061 224.51 280.061Z" fill="#263238"/>
<path d="M215.947 197.26C215.949 197.521 215.867 197.776 215.709 197.994C215.552 198.211 215.327 198.382 215.064 198.483C214.8 198.584 214.509 198.611 214.228 198.562C213.948 198.512 213.689 198.388 213.486 198.204C213.283 198.021 213.144 197.786 213.088 197.531C213.031 197.275 213.059 197.01 213.168 196.769C213.277 196.528 213.462 196.322 213.7 196.177C213.937 196.032 214.217 195.955 214.503 195.955C214.884 195.955 215.25 196.092 215.52 196.336C215.791 196.581 215.944 196.913 215.947 197.26V197.26Z" fill="#263238"/>
<path d="M221.564 198.565C222.356 198.565 222.997 197.981 222.997 197.26C222.997 196.539 222.356 195.955 221.564 195.955C220.773 195.955 220.132 196.539 220.132 197.26C220.132 197.981 220.773 198.565 221.564 198.565Z" fill="#263238"/>
<path d="M230.059 197.26C230.061 197.521 229.978 197.777 229.82 197.995C229.662 198.213 229.437 198.383 229.172 198.484C228.908 198.585 228.617 198.611 228.336 198.561C228.054 198.511 227.796 198.385 227.593 198.201C227.391 198.016 227.253 197.781 227.198 197.524C227.142 197.268 227.172 197.003 227.283 196.762C227.393 196.521 227.58 196.316 227.819 196.172C228.059 196.028 228.339 195.953 228.626 195.955C229.005 195.957 229.368 196.096 229.636 196.34C229.904 196.584 230.056 196.915 230.059 197.26Z" fill="#263238"/>
<path d="M204.815 280.061C204.815 280.061 204.815 279.792 204.94 279.263C205.065 278.735 205.179 277.906 205.361 276.912C205.759 274.84 206.316 271.805 207.01 268.086C208.465 260.482 210.478 249.916 212.786 237.858V237.64H225.59L225.522 237.961C222.008 255.22 218.881 270.531 216.936 280.102V280.237H216.8L207.896 280.144H205.622C205.365 280.158 205.107 280.158 204.849 280.144H205.076H205.69H208.056L216.845 280.051L216.664 280.185L225.021 238.013L225.306 238.324H213.07L213.355 238.106C210.955 250.071 208.806 260.555 207.351 268.086C206.577 271.825 205.963 274.84 205.52 276.953C205.315 277.989 205.145 278.776 205.02 279.357L204.883 279.988C204.862 280.014 204.839 280.038 204.815 280.061Z" fill="#263238"/>
<path d="M337.731 237.909H272.825L276.532 218.061H341.893L337.731 237.909Z" fill="#EE4248"/>
<path d="M272.825 237.909L271.563 244.84C271.563 244.84 280.091 237.64 279.955 237.64H272.882" fill="#EE4248"/>
<path d="M332.102 224.96C332.102 225.105 321.288 225.23 307.962 225.23C294.635 225.23 283.81 225.105 283.81 224.96C283.81 224.815 294.623 224.691 307.962 224.691C321.3 224.691 332.102 224.815 332.102 224.96Z" fill="#FAFAFA"/>
<path d="M331.465 229.757C331.465 229.902 320.652 230.026 307.325 230.026C293.998 230.026 283.173 229.902 283.173 229.757C283.173 229.612 293.987 229.487 307.325 229.487C320.663 229.487 331.465 229.601 331.465 229.757Z" fill="#FAFAFA"/>
<path d="M437.625 330.148H252.71V428.446H437.625V330.148Z" fill="#263238"/>
<path d="M336.946 330.148H252.71V428.446H336.946V330.148Z" fill="#455A64"/>
<path d="M328.327 363.535C328.327 363.535 328.327 363.359 328.327 363.038C328.327 362.717 328.327 362.22 328.327 361.609C328.327 360.334 328.327 358.501 328.27 356.149C328.27 351.426 328.213 344.62 328.156 336.229L328.372 336.425L260.612 336.498C260.351 336.747 260.965 336.177 260.908 336.239V343.345C260.908 345.697 260.908 348.017 260.908 350.296C260.908 354.865 260.908 359.299 260.908 363.535L260.635 363.287L309.201 363.401L323.29 363.473H327.065H328.054H328.395C328.293 363.483 328.19 363.483 328.088 363.473H327.133H323.415L309.394 363.546L260.635 363.67H260.351V363.411C260.351 359.174 260.351 354.74 260.351 350.172V336.239C260.283 336.239 260.908 335.721 260.647 335.959L328.327 336.001H328.543V336.187C328.543 344.63 328.452 351.467 328.429 356.232C328.429 358.563 328.429 360.376 328.372 361.64C328.372 362.23 328.372 362.676 328.372 363.038C328.371 363.205 328.355 363.371 328.327 363.535V363.535Z" fill="#263238"/>
<path d="M297.364 349.882C297.364 349.882 297.296 349.654 297.159 349.271C296.969 348.741 296.599 348.28 296.102 347.955C295.743 347.719 295.326 347.567 294.887 347.515C294.448 347.462 294.002 347.51 293.589 347.655C293.089 347.824 292.658 348.129 292.354 348.528C292.05 348.927 291.887 349.401 291.887 349.887C291.887 350.373 292.05 350.847 292.354 351.246C292.658 351.645 293.089 351.95 293.589 352.12C294.003 352.258 294.448 352.304 294.886 352.251C295.323 352.199 295.741 352.051 296.102 351.819C296.599 351.494 296.969 351.033 297.159 350.504C297.296 350.12 297.307 349.882 297.364 349.882C297.421 349.882 297.455 350.12 297.364 350.555C297.232 351.172 296.866 351.726 296.329 352.12C295.923 352.42 295.439 352.621 294.923 352.703C294.408 352.784 293.878 352.744 293.384 352.586C292.77 352.39 292.238 352.025 291.861 351.542C291.485 351.058 291.282 350.48 291.282 349.887C291.282 349.294 291.485 348.716 291.861 348.233C292.238 347.749 292.77 347.384 293.384 347.189C293.877 347.032 294.406 346.991 294.921 347.071C295.436 347.151 295.92 347.348 296.329 347.644C296.867 348.042 297.234 348.599 297.364 349.219C297.455 349.654 297.398 349.892 297.364 349.882Z" fill="#263238"/>
<path d="M328.327 393.598C328.327 393.598 328.327 393.422 328.327 393.101C328.327 392.779 328.327 392.272 328.327 391.661C328.327 390.386 328.327 388.553 328.27 386.212C328.27 381.478 328.213 374.682 328.157 366.291L328.373 366.488L260.613 366.56L260.908 366.291V373.387C260.908 375.739 260.908 378.049 260.908 380.338C260.908 384.906 260.908 389.33 260.908 393.577L260.635 393.318L309.201 393.442L323.29 393.515H327.065H328.054C328.168 393.507 328.282 393.507 328.395 393.515H328.088H327.133H323.415L309.394 393.587L260.635 393.712H260.351V393.453C260.351 389.206 260.351 384.782 260.351 380.214V366.312L260.647 366.042L328.407 366.115H328.623V366.312C328.623 374.754 328.532 381.592 328.509 386.346C328.509 388.677 328.509 390.49 328.452 391.764C328.452 392.355 328.452 392.8 328.452 393.152C328.421 393.303 328.379 393.452 328.327 393.598Z" fill="#263238"/>
<path d="M297.364 379.944C297.364 379.944 297.296 379.706 297.159 379.323C296.969 378.793 296.599 378.332 296.102 378.007C295.741 377.776 295.323 377.627 294.886 377.575C294.448 377.523 294.003 377.568 293.589 377.707C293.089 377.877 292.658 378.181 292.354 378.58C292.05 378.979 291.887 379.453 291.887 379.939C291.887 380.425 292.05 380.899 292.354 381.298C292.658 381.697 293.089 382.002 293.589 382.172C294.001 382.315 294.447 382.363 294.885 382.312C295.323 382.262 295.741 382.114 296.102 381.882C296.602 381.555 296.973 381.09 297.159 380.556C297.296 380.172 297.307 379.944 297.364 379.944C297.421 379.944 297.455 380.183 297.364 380.607C297.236 381.228 296.869 381.786 296.329 382.182C295.922 382.481 295.437 382.68 294.922 382.76C294.406 382.839 293.877 382.797 293.384 382.638C292.77 382.442 292.238 382.077 291.861 381.594C291.485 381.11 291.282 380.532 291.282 379.939C291.282 379.346 291.485 378.768 291.861 378.285C292.238 377.801 292.77 377.436 293.384 377.241C293.878 377.082 294.408 377.042 294.923 377.124C295.439 377.205 295.923 377.406 296.329 377.707C296.869 378.103 297.236 378.661 297.364 379.281C297.455 379.706 297.398 379.944 297.364 379.944Z" fill="#263238"/>
<path d="M328.327 423.65C328.327 423.65 328.327 423.474 328.327 423.153C328.327 422.831 328.327 422.334 328.327 421.723C328.327 420.449 328.327 418.615 328.27 416.264C328.27 411.54 328.213 404.734 328.156 396.343L328.372 396.54L260.612 396.612C260.351 396.861 260.965 396.291 260.908 396.353V403.46C260.908 405.811 260.908 408.132 260.908 410.411C260.908 414.979 260.908 419.413 260.908 423.65L260.635 423.401L309.201 423.515L323.29 423.588H327.065H328.054H328.395C328.293 423.598 328.19 423.598 328.088 423.588H327.133H323.415L309.394 423.65L260.635 423.774H260.351V423.515C260.351 419.278 260.351 414.845 260.351 410.276V396.353C260.283 396.405 260.908 395.835 260.647 396.074L328.407 396.157H328.623V396.343C328.623 404.786 328.532 411.633 328.509 416.388C328.509 418.719 328.509 420.532 328.452 421.796C328.452 422.396 328.452 422.831 328.452 423.194C328.422 423.348 328.38 423.501 328.327 423.65V423.65Z" fill="#263238"/>
<path d="M297.364 409.996C297.364 409.996 297.296 409.769 297.159 409.385C296.969 408.855 296.599 408.395 296.102 408.07C295.742 407.836 295.324 407.686 294.886 407.633C294.448 407.581 294.002 407.628 293.589 407.769C293.089 407.939 292.658 408.244 292.354 408.643C292.05 409.042 291.887 409.516 291.887 410.002C291.887 410.487 292.05 410.961 292.354 411.36C292.658 411.759 293.089 412.064 293.589 412.234C294.002 412.376 294.448 412.422 294.886 412.37C295.324 412.317 295.742 412.168 296.102 411.934C296.599 411.609 296.969 411.148 297.159 410.618C297.296 410.235 297.307 409.996 297.364 409.996C297.421 409.996 297.455 410.235 297.364 410.67C297.231 411.288 296.865 411.845 296.329 412.244C295.92 412.541 295.436 412.738 294.921 412.818C294.406 412.897 293.877 412.857 293.384 412.7C292.77 412.504 292.238 412.139 291.861 411.656C291.485 411.172 291.282 410.594 291.282 410.002C291.282 409.409 291.485 408.831 291.861 408.347C292.238 407.864 292.77 407.499 293.384 407.303C293.877 407.146 294.406 407.106 294.921 407.186C295.436 407.265 295.92 407.462 296.329 407.759C296.867 408.156 297.234 408.714 297.364 409.333C297.455 409.769 297.398 410.007 297.364 409.996Z" fill="#263238"/>
<path d="M161.514 330.148H5.96979V428.446H161.514V330.148Z" fill="#263238"/>
<path d="M444.323 323.29H0V332.634H444.323V323.29Z" fill="#263238"/>
<path d="M19.7515 332.634H5.96979V428.446H19.7515V332.634Z" fill="#455A64"/>
<path d="M178.718 175.433C178.627 175.04 178.562 174.642 178.525 174.242C178.36 173.177 177.974 172.15 177.388 171.217C177.008 170.592 176.43 170.086 175.728 169.767C175.332 169.612 174.895 169.568 174.472 169.639C174.049 169.711 173.659 169.896 173.351 170.171C172.034 171.66 171.316 173.515 171.316 175.428C171.316 177.341 172.034 179.196 173.351 180.685C173.658 180.961 174.047 181.148 174.47 181.222C174.894 181.296 175.331 181.253 175.728 181.1C176.428 180.773 177.006 180.265 177.388 179.639C177.974 178.705 178.36 177.679 178.525 176.614C178.562 176.217 178.626 175.823 178.718 175.433C178.792 175.834 178.792 176.244 178.718 176.645C178.642 177.761 178.305 178.849 177.729 179.836C177.318 180.547 176.68 181.129 175.898 181.504C175.435 181.706 174.916 181.774 174.409 181.7C173.879 181.606 173.386 181.388 172.976 181.068C171.508 179.495 170.702 177.498 170.702 175.433C170.702 173.368 171.508 171.371 172.976 169.798C173.382 169.471 173.877 169.249 174.409 169.155C174.916 169.087 175.434 169.155 175.898 169.352C176.68 169.727 177.318 170.308 177.729 171.02C178.307 172.01 178.644 173.102 178.718 174.221C178.791 174.622 178.791 175.032 178.718 175.433V175.433Z" fill="#263238"/>
<path d="M129.63 155.181L126.218 217.253L155.487 219.76L157.102 204.687C157.102 204.687 167.336 207.008 170.52 198.337C172.51 192.795 174.284 149.4 174.284 149.4L129.63 155.181Z" fill="#FFBE9D"/>
<path d="M180.504 155.802C178.013 161.2 168.621 165.83 168.621 165.83L167.086 179.577C165.689 179.489 164.287 179.489 162.89 179.577C163.64 173.123 154.532 174.397 153.6 178.779C152.713 183.006 158 185.834 158 185.834C154.35 190.93 152.872 193.624 147.687 198.399C142.092 203.579 139.079 203.993 133.291 203.838L126.912 203.569C126.912 203.569 124.638 198.607 122.989 186.89C122.182 181.255 117.304 173.869 118.725 164.701C122.637 138.668 154.259 143.288 154.259 143.288C166.131 134.877 186.371 143.112 180.504 155.802Z" fill="#263238"/>
<path d="M178.718 175.506C176.56 175.885 174.367 176.079 172.169 176.086C169.982 176.262 167.783 176.262 165.596 176.086C167.752 175.713 169.941 175.522 172.135 175.516C174.325 175.339 176.528 175.335 178.718 175.506Z" fill="#263238"/>
<path d="M271.961 248.424L261.329 254.422L257.429 262.709V255.458C257.429 255.458 260.317 252.35 262.682 250.081C265.047 247.813 263.353 246.238 262.682 245.461C262.011 244.684 251.834 255.458 251.834 255.458V261.673C247.092 256.359 244.898 258.182 244.17 259.146C243.442 260.109 251.834 267.319 251.834 267.319V269.515L210.137 289.944L199.164 265.082L176.751 275.803L190.135 305.317C191.058 307.358 192.452 309.195 194.223 310.703C195.994 312.211 198.1 313.353 200.398 314.054C202.697 314.755 205.134 314.997 207.544 314.763C209.954 314.53 212.281 313.828 214.367 312.703L263.433 286.276L266.696 281.314C267.829 279.604 268.496 277.672 268.641 275.679L270.335 253.355C273.314 251.656 271.961 248.424 271.961 248.424Z" fill="#FFBE9D"/>
<path d="M210.341 289.975C209.351 293.47 207.971 296.865 206.225 300.106C207.229 296.614 208.608 293.221 210.341 289.975V289.975Z" fill="#EB996E"/>
<path d="M270.335 253.355C269.707 253.65 269.061 253.912 268.402 254.142C267.649 254.467 266.978 254.929 266.428 255.499C265.879 256.069 265.463 256.735 265.207 257.457C264.357 259.543 263.322 261.563 262.114 263.497C262.78 261.366 263.632 259.288 264.661 257.281C264.993 256.433 265.52 255.66 266.207 255.012C266.796 254.514 267.478 254.114 268.22 253.832C268.876 253.528 269.599 253.365 270.335 253.355V253.355Z" fill="#EB996E"/>
<path d="M270.176 256.887C269.991 256.91 269.815 256.97 269.659 257.063C269.504 257.157 269.373 257.281 269.277 257.426C268.948 258.006 268.527 258.918 268.14 259.892C267.713 261.124 267.212 262.335 266.639 263.517C266.641 262.195 266.963 260.89 267.583 259.695C267.95 258.823 268.419 257.989 268.982 257.209C269.085 257.079 269.217 256.971 269.37 256.892C269.523 256.813 269.693 256.766 269.869 256.753C270.085 256.753 270.187 256.856 270.176 256.887Z" fill="#EB996E"/>
<path d="M170.054 272.022L174.818 286.722L205.054 274.291C203.917 271.183 198.959 257.499 189.396 235.744C186.777 229.78 182.518 224.529 177.027 220.498C171.537 216.467 165 213.79 158.046 212.726C148.153 211.224 137.385 210.054 129.095 210.147C120.866 210.217 112.911 212.857 106.562 217.627C100.212 222.398 95.8516 229.009 94.209 236.356C91.6505 247.906 96.1307 255.541 93.2425 280.817L92.3214 344.392L173.056 347.095L170.054 272.022Z" fill="#EE4248"/>
<path d="M96.9949 280.144C96.9949 280.144 85.7717 280.745 81.3597 273.006C81.3597 273.006 93.4471 232.295 97.6658 227.498L96.9949 280.144Z" fill="#EE4248"/>
<path d="M190.92 239.847C190.631 240.05 190.308 240.211 189.964 240.323C188.975 240.65 187.935 240.829 186.883 240.851C185.23 240.844 183.584 240.653 181.982 240.282C180.117 239.898 178.036 239.329 175.705 238.976C174.49 238.843 173.267 238.784 172.044 238.8C170.72 238.896 169.408 239.093 168.121 239.391C165.266 240.097 162.524 241.142 159.968 242.499C157.204 243.866 154.396 245.482 151.405 247.077C148.337 248.812 145.049 250.203 141.615 251.221C138.086 252.217 134.317 252.271 130.755 251.376C127.525 250.424 124.515 248.939 121.875 246.994C119.339 245.202 117.133 243.317 115.052 241.597C113.154 239.986 111.141 238.49 109.025 237.122C106.014 235.071 102.503 233.714 98.7915 233.165C97.4205 233.095 96.0462 233.095 94.6752 233.165C95.0105 233.041 95.3622 232.957 95.7213 232.916C96.7513 232.767 97.7962 232.722 98.837 232.782C102.67 233.187 106.326 234.478 109.458 236.532C111.642 237.875 113.717 239.36 115.666 240.976C117.781 242.675 120.01 244.519 122.489 246.238C125.037 248.078 127.931 249.482 131.028 250.382C134.389 251.207 137.938 251.146 141.262 250.206C144.602 249.211 147.804 247.866 150.803 246.197C153.77 244.633 156.602 243.017 159.422 241.649C162.074 240.276 164.915 239.231 167.87 238.541C169.222 238.247 170.6 238.06 171.987 237.982C173.269 237.994 174.549 238.084 175.819 238.251C178.23 238.666 180.288 239.287 182.118 239.722C183.663 240.128 185.254 240.371 186.86 240.447C188.239 240.44 189.609 240.238 190.92 239.847V239.847Z" fill="#263238"/>
<path d="M170.588 290.576C169.047 289.739 167.345 289.177 165.574 288.918C163.644 288.711 161.69 288.809 159.797 289.208C157.637 289.602 155.306 290.317 152.747 290.897C148.357 291.925 143.76 291.982 139.341 291.062C135.929 290.337 134.099 289.353 134.155 289.25C134.212 289.146 136.191 289.799 139.511 290.286C143.817 290.953 148.228 290.794 152.463 289.819C154.953 289.25 157.33 288.556 159.592 288.193C161.609 287.822 163.685 287.8 165.71 288.131C167.081 288.353 168.384 288.84 169.531 289.56C170.327 290.13 170.645 290.534 170.588 290.576Z" fill="#263238"/>
<path d="M171.407 328.532C171.407 328.532 171.1 328.998 170.338 329.65C169.238 330.567 168.006 331.345 166.677 331.961C164.682 332.904 162.476 333.414 160.229 333.452C157.487 333.384 154.784 332.835 152.269 331.836C149.62 330.894 147.198 329.837 144.912 329.246C142.892 328.684 140.777 328.46 138.67 328.583C137.262 328.661 135.889 329.014 134.644 329.619C133.757 330.065 133.348 330.427 133.269 330.355C133.189 330.282 133.541 329.847 134.406 329.319C135.638 328.505 137.079 327.992 138.59 327.827C140.808 327.591 143.056 327.75 145.208 328.293C147.76 329.016 150.265 329.867 152.713 330.842C155.084 331.787 157.622 332.338 160.206 332.468C162.305 332.476 164.38 332.07 166.29 331.277C169.644 329.899 171.293 328.376 171.407 328.532Z" fill="#263238"/>
<g opacity="0.3">
<path opacity="0.3" d="M83.85 280.859C94.4251 282.827 105.284 280.859 116.053 280.258C122.591 279.906 129.834 279.222 134.997 282.92C139.09 285.821 140.682 290.7 141.922 295.299C146.47 312.848 147.255 328.521 148.267 346.515L95.9602 345.479L83.85 280.859Z" fill="black"/>
</g>
<path opacity="0.3" d="M97.6658 247.823L99.9286 277.533H93.0378L97.6658 247.823Z" fill="black"/>
<path d="M112.357 344.35L216.175 347.696C224.276 347.956 231.943 351.1 237.526 356.455C243.11 361.809 246.165 368.945 246.035 376.329L245.125 430H207.055L204.599 383.725L112.357 381.509V344.35Z" fill="#263238"/>
<path d="M147.175 393.422H136.964V427.472H147.175V393.422Z" fill="#455A64"/>
<path d="M51.2834 285.241V367.285C51.2864 372.452 53.5412 377.405 57.5521 381.057C61.5629 384.709 67.0016 386.761 72.6723 386.761H132.643V285.241C132.64 282.937 131.634 280.729 129.845 279.102C128.056 277.474 125.631 276.56 123.103 276.56H60.8123C58.2851 276.56 55.8614 277.474 54.0743 279.102C52.2873 280.73 51.2834 282.938 51.2834 285.241V285.241Z" fill="#455A64"/>
<path d="M213.355 393.422H67.3051C67.3232 389.586 69.0083 385.913 71.9919 383.207C74.9754 380.5 79.0142 378.981 83.2246 378.981H197.56C201.764 378.981 205.796 380.502 208.769 383.211C211.741 385.919 213.411 389.592 213.411 393.422H213.355Z" fill="#455A64"/>
<path d="M132.643 377.065C132.709 377.875 132.633 378.69 132.416 379.478C131.926 381.325 130.859 383.004 129.343 384.309C127.827 385.615 125.928 386.491 123.876 386.833C122.948 386.971 122.008 387.029 121.067 387.009H118.122H105H81.1209L73.9003 386.926H71.9331C71.7037 386.933 71.4743 386.912 71.2509 386.864C71.4765 386.831 71.7046 386.814 71.9331 386.813L73.9003 386.761L81.1209 386.667L105 386.564H121.067C121.98 386.596 122.894 386.547 123.796 386.419C125.393 386.168 126.901 385.575 128.197 384.689C130.12 383.394 131.51 381.548 132.143 379.447C132.62 377.935 132.563 377.054 132.643 377.065Z" fill="#263238"/>
<path d="M151.019 393.701C148.046 393.974 145.056 394.064 142.07 393.971C139.08 394.065 136.086 393.975 133.109 393.701C136.086 393.435 139.08 393.345 142.07 393.432C145.056 393.345 148.045 393.435 151.019 393.701V393.701Z" fill="#263238"/>
<path d="M195.457 387.486C195.315 387.153 195.224 386.805 195.184 386.45C195.036 385.777 194.843 384.803 194.615 383.539C194.149 381.001 193.478 377.323 192.75 372.807C192.341 370.549 192.011 368.031 191.465 365.41C191.318 364.758 191.181 364.095 191.033 363.411C190.885 362.727 190.601 362.085 190.385 361.401C190.271 361.07 190.169 360.718 190.055 360.365C189.942 360.013 189.771 359.692 189.623 359.33C189.316 358.646 189.043 357.952 188.714 357.258C187.27 354.421 185.444 351.759 183.278 349.333C180.913 346.756 178.161 344.496 175.102 342.62C172.058 340.722 168.714 339.255 165.187 338.269C161.913 337.323 158.511 336.793 155.078 336.695C148.46 336.56 142.433 336.591 137.408 336.529C132.382 336.467 128.311 336.415 125.491 336.353C124.081 336.353 122.989 336.291 122.239 336.249C121.856 336.26 121.474 336.225 121.101 336.146C121.473 336.059 121.855 336.02 122.239 336.032L125.491 335.928C128.299 335.866 132.382 335.814 137.408 335.762C142.433 335.711 148.426 335.617 155.112 335.7C158.652 335.769 162.163 336.296 165.539 337.264C169.185 338.258 172.638 339.765 175.773 341.729C178.932 343.655 181.767 345.99 184.188 348.66C186.404 351.168 188.265 353.921 189.726 356.854C190.055 357.558 190.328 358.283 190.635 358.977C190.772 359.33 190.92 359.671 191.067 360.013C191.215 360.355 191.283 360.718 191.397 361.049C191.613 361.754 191.818 362.437 192.023 363.121C192.227 363.805 192.307 364.499 192.443 365.193C192.955 367.876 193.228 370.372 193.58 372.631C194.229 377.178 194.717 380.866 195.07 383.415C195.229 384.689 195.354 385.683 195.422 386.357C195.496 386.729 195.508 387.11 195.457 387.486V387.486Z" fill="#455A64"/>
<path d="M11.1549 288.203C11.1549 288.203 9.31281 292.896 12.8378 296.294H20.1721C20.1721 296.294 19.524 288.711 11.1549 288.203Z" fill="#EE4248"/>
<path opacity="0.4" d="M11.1549 288.203C11.1549 288.203 9.31281 292.896 12.8378 296.294H20.1721C20.1721 296.294 19.524 288.711 11.1549 288.203Z" fill="black"/>
<path d="M23.6517 278.538C23.3447 278.207 17.0679 287.157 20.5929 296.294H27.5065C27.5065 296.294 30.2128 285.665 23.6517 278.538Z" fill="#EE4248"/>
<path d="M35.8983 288.203C33.6382 288.341 31.5187 289.251 29.963 290.751C28.4073 292.251 27.53 294.23 27.5064 296.294H34.4087C34.4087 296.294 37.4334 292.419 35.8983 288.203Z" fill="#EE4248"/>
<path d="M12.2692 295.942C9.88483 297.501 8.03549 299.645 6.93638 302.125C5.83727 304.604 5.53358 307.317 6.06065 309.947C7.83453 319.271 18.637 323.29 18.637 323.29H30.6107C30.6107 323.29 42.8004 318.39 42.5048 308.311C42.2091 298.231 34.9544 296.087 34.9544 296.087L12.2692 295.942Z" fill="#455A64"/>
<path d="M42.4593 307.181C42.1882 306.765 41.8553 306.385 41.4701 306.052C40.9133 305.647 40.2737 305.347 39.5885 305.169C38.9034 304.992 38.1863 304.94 37.4788 305.016C35.3612 305.382 33.3602 306.175 31.6228 307.337C30.5191 307.98 29.3501 308.524 28.1318 308.963C26.7877 309.429 25.3319 309.561 23.9132 309.346C20.9908 308.891 18.6598 307.461 16.4765 306.508C14.6189 305.521 12.4836 305.052 10.3362 305.161C8.90055 305.297 7.57136 305.913 6.6065 306.891C6.28408 307.277 6.0095 307.694 5.78778 308.134C5.79538 308.004 5.82215 307.875 5.86738 307.751C5.98522 307.379 6.1738 307.028 6.42456 306.715C7.37804 305.626 8.76157 304.919 10.2793 304.747C12.537 304.566 14.8008 305.026 16.7608 306.063C19.035 307.016 21.3092 308.393 24.0497 308.808C25.3711 309.015 26.7293 308.897 27.984 308.466C29.173 308.044 30.3152 307.52 31.3953 306.902C33.2087 305.729 35.2943 304.953 37.4902 304.633C38.2477 304.565 39.0122 304.643 39.7348 304.861C40.4574 305.078 41.1221 305.431 41.6861 305.897C41.9795 306.159 42.2184 306.468 42.3911 306.808C42.448 307.047 42.4821 307.171 42.4593 307.181Z" fill="#263238"/>
<path d="M42.63 309.616C42.3572 309.207 42.0286 308.831 41.6521 308.497C41.1037 308.089 40.4703 307.787 39.7901 307.609C39.1099 307.431 38.3971 307.381 37.6949 307.461C35.6006 307.828 33.623 308.617 31.9071 309.771C30.8321 310.418 29.6894 310.966 28.4958 311.408C27.1639 311.875 25.7186 312.008 24.3112 311.791C21.4116 311.335 19.1033 309.906 16.9428 308.953C15.1137 307.967 13.0042 307.498 10.8821 307.606C9.45569 307.748 8.13833 308.368 7.18648 309.346C6.86894 309.727 6.60177 310.141 6.3905 310.579C6.3905 310.579 6.3905 310.445 6.45873 310.196C6.58175 309.843 6.76602 309.511 7.00454 309.212C7.94272 308.125 9.30954 307.415 10.8138 307.233C13.0335 307.05 15.2613 307.494 17.193 308.507C19.399 309.46 21.7414 310.838 24.4022 311.253C25.7087 311.459 27.0522 311.341 28.2911 310.911C29.4625 310.49 30.586 309.966 31.6455 309.346C33.4376 308.173 35.5049 307.397 37.6836 307.078C38.4249 307.017 39.1719 307.098 39.8768 307.316C40.5818 307.534 41.229 307.883 41.7771 308.342C42.0654 308.602 42.3003 308.907 42.4708 309.243C42.5461 309.358 42.5999 309.484 42.63 309.616Z" fill="#263238"/>
<path d="M11.5529 309.554C11.5529 309.491 11.8713 309.305 12.292 309.616C12.4192 309.716 12.51 309.848 12.5527 309.996C12.5953 310.144 12.5877 310.301 12.5308 310.445C12.4608 310.622 12.3296 310.774 12.1569 310.877C11.9841 310.981 11.7791 311.03 11.5728 311.019C11.3664 311.007 11.1697 310.935 11.0124 310.812C10.855 310.69 10.7454 310.525 10.7001 310.341C10.6601 310.199 10.6633 310.05 10.7094 309.909C10.7555 309.769 10.8427 309.642 10.9616 309.543C11.371 309.232 11.7235 309.378 11.7007 309.44C11.678 309.502 11.4506 309.554 11.28 309.802C11.2432 309.864 11.2239 309.934 11.2239 310.004C11.2239 310.075 11.2432 310.144 11.28 310.206C11.3133 310.279 11.3662 310.342 11.4338 310.391C11.5014 310.44 11.5815 310.473 11.6666 310.486C11.7506 310.483 11.8324 310.461 11.9041 310.421C11.9758 310.381 12.035 310.325 12.076 310.258C12.114 310.2 12.1342 310.134 12.1342 310.066C12.1342 309.999 12.114 309.933 12.076 309.875C11.8258 309.637 11.5643 309.626 11.5529 309.554Z" fill="#263238"/>
<path d="M25.1186 305.617C25.1186 305.555 25.437 305.358 25.8691 305.679C25.9917 305.782 26.0786 305.915 26.119 306.063C26.1594 306.21 26.1516 306.365 26.0965 306.508C26.0247 306.684 25.8937 306.835 25.7222 306.939C25.5506 307.043 25.3473 307.096 25.1413 307.088C24.9358 307.07 24.7413 306.995 24.5846 306.873C24.4278 306.75 24.3165 306.587 24.2658 306.404C24.2245 306.262 24.2282 306.111 24.2765 305.97C24.3247 305.829 24.4156 305.703 24.5387 305.607C24.948 305.296 25.3005 305.441 25.2664 305.503C25.2323 305.565 25.0162 305.617 24.8457 305.866C24.8116 305.929 24.7939 305.998 24.7939 306.068C24.7939 306.138 24.8116 306.207 24.8457 306.27C24.879 306.342 24.9319 306.406 24.9995 306.455C25.0671 306.504 25.1472 306.536 25.2323 306.549C25.3165 306.548 25.3988 306.526 25.4707 306.486C25.5426 306.446 25.6016 306.389 25.6417 306.322C25.681 306.264 25.7018 306.198 25.7018 306.13C25.7018 306.062 25.681 305.996 25.6417 305.938C25.3915 305.7 25.13 305.69 25.1186 305.617Z" fill="#263238"/>
<path d="M38.2748 309.73C38.2748 309.668 38.5932 309.481 39.0253 309.792C39.148 309.895 39.2348 310.028 39.2753 310.175C39.3157 310.323 39.3078 310.477 39.2527 310.621C39.181 310.797 39.05 310.948 38.8784 311.052C38.7069 311.156 38.5036 311.208 38.2976 311.201C38.0935 311.184 37.9001 311.11 37.7435 310.99C37.5869 310.869 37.4747 310.708 37.422 310.527C37.3812 310.383 37.385 310.231 37.4332 310.088C37.4814 309.946 37.572 309.818 37.6949 309.719C38.1043 309.409 38.4568 309.554 38.4227 309.616C38.3885 309.678 38.1725 309.74 38.0019 309.978C37.9541 310.04 37.9245 310.111 37.9161 310.186C37.9077 310.261 37.9208 310.337 37.954 310.405C37.9872 310.474 38.0395 310.534 38.1057 310.579C38.1719 310.624 38.2497 310.653 38.3317 310.662C38.4159 310.66 38.4982 310.638 38.57 310.598C38.6419 310.558 38.7009 310.502 38.741 310.434C38.7803 310.377 38.8012 310.31 38.8012 310.243C38.8012 310.175 38.7803 310.108 38.741 310.051C38.5477 309.823 38.2976 309.802 38.2748 309.73Z" fill="#263238"/>
<path d="M384.409 286.432L388.309 323.29H408.026L412.745 286.432H384.409Z" fill="#455A64"/>
<path d="M384.409 281.667C383.195 283.047 382.541 284.767 382.555 286.535H414.599C414.755 285.648 414.667 284.738 414.344 283.889C414.02 283.039 413.471 282.276 412.745 281.667H384.409Z" fill="#263238"/>
<path d="M388.059 278.29L386.979 281.936L411.165 282.102L409.562 278.248L388.059 278.29Z" fill="#263238"/>
<path d="M384.045 295.662C384.045 296.004 386.319 314.246 386.319 314.246H410.414L412.689 295.693L384.045 295.662Z" fill="#EE4248"/>
</svg>
